<svg width="600" height="476.30000000000007" xmlns="http://www.w3.org/2000/svg">

 <g>
  <title>Layer 1</title>
  <path id="svg_1" fill="#ffffff" d="m0,259.8l0,-259.8l225,129.9l0,86.6l-150,-86.6l0,173.2l-75,-43.3z"/>
  <path id="svg_2" fill="#b2b2b2" d="m225,129.9l225,-129.9l0,259.8l-150,86.6l-75,-43.3l150,-86.6l0,-86.6l-150,86.6l0,-86.6z"/>
  <path id="svg_3" fill="#ffffff" d="m225,303.1l0,86.6l150,86.6l0,-86.6l-150,-86.6z"/>
  <path id="svg_4" fill="#b2b2b2" d="m375,476.3l225,-129.9l0,-173.2l-75,43.3l0,86.6l-150,86.6l0,86.6zm150,-346.4l0,-86.6l75,-43.3l0,86.6l-75,43.3z"/>
 </g>
</svg>