<svg width="24" height="24" xmlns="http://www.w3.org/2000/svg" fill="#000000">

 <g>
  <title>Layer 1</title>
  <path fill="#ffffff" id="svg_1" d="m13.44531,1c1.1,2.193 -3.9392,3.54509 -4.4082,5.37109c-0.429,1.678 2.99114,3.62891 2.99414,3.62891c-0.52,-0.694 -0.89597,-1.26861 -1.41797,-2.34961c-0.882,-1.828 5.21103,-3.71339 2.83203,-6.65039zm3.55469,3c0,0 -3.80014,0.23088 -3.99414,2.54688c-0.086,1.031 0.9983,1.58103 1.0293,2.33203c0.026,0.612 -0.64844,1.12109 -0.64844,1.12109c0,0 1.11409,-0.17047 1.49609,-1.10547c0.423,-1.037 -0.71294,-1.794 -0.58593,-2.625c0.121,-0.794 2.70312,-2.26953 2.70312,-2.26953zm-6.83594,6.00195c0,0 -4.16406,-0.06032 -4.16406,1.13868c0,0.57188 1.16022,0.88976 2.76367,1.00585c-0.65015,0.02845 -1.56445,0.53933 -1.56445,1.03907c0,1.034 4.9032,1.83031 8.5332,0.32031l-1.25586,-0.81836c-2.45003,0.83128 -6.95297,0.56836 -5.66797,-0.53711c1.90774,0.13251 4.43936,-0.02202 6.54102,-0.4375c0,0 0.88511,-0.50053 1.16211,-0.76953c-2.553,0.528 -8.22461,0.37501 -8.22461,-0.08398c0,-0.42301 1.87695,-0.85743 1.87695,-0.85743zm8.42969,0c-0.45776,-0.01985 -0.959,0.13205 -1.39062,0.45118c0.90099,-0.202 1.6621,0.3712 1.6621,1.0332c0,1.488 -2.06445,2.89844 -2.06445,2.89844c0,0 3.19922,-0.38113 3.19922,-2.82813c0,-1.01062 -0.64331,-1.5216 -1.40625,-1.55469zm-8.84961,4.33985c-0.896,0 -1.47656,0.62212 -1.47656,1.07812c0,1.411 5.3468,1.46039 7.4668,0.02539l-1.34766,-0.86914c-1.583,0.751 -5.55758,0.85363 -4.64258,-0.23437zm-3.86523,2.35156c-1.28865,-0.04144 -1.87891,0.6343 -1.87891,1.18555c0,2.932 14,2.78992 14,-0.20508c0,-0.498 -0.54228,-0.73466 -0.73828,-0.84766c1.143,2.864 -11.58984,2.66756 -11.58984,0.97656c0,-0.385 0.67325,-0.77665 1.53125,-0.59765c0,0 -0.31352,-0.37327 -0.72852,-0.44727c-0.21288,-0.03762 -0.41161,-0.05853 -0.5957,-0.06445zm14.12109,2.01367c-2.201,2.229 -8.25919,3.58203 -13.86719,2.20703c5.634,2.361 13.84019,0.52797 13.86719,-2.20703z"/>
 </g>
</svg>